<mxfile host="app.diagrams.net" modified="2023-03-13T12:15:26.335Z" agent="5.0 (Windows NT 10.0; Win64; x64) AppleWebKit/537.36 (KHTML, like Gecko) Chrome/110.0.0.0 Safari/537.36 Edg/110.0.1587.63" etag="EWI9hQQJt0cbNuZCBeTs" version="21.0.6" type="github">
  <diagram name="第 1 页" id="ZGKFVFZ4NVA7VQjtcypu">
    <mxGraphModel dx="1366" dy="836" grid="1" gridSize="10" guides="1" tooltips="1" connect="1" arrows="1" fold="1" page="1" pageScale="1" pageWidth="827" pageHeight="1169" math="0" shadow="0">
      <root>
        <mxCell id="0" />
        <mxCell id="1" parent="0" />
        <mxCell id="DtpV55ZIUneFxWsYKkXx-1" value="&lt;font style=&quot;font-size: 17px;&quot;&gt;已提交事务&lt;/font&gt;" style="rounded=1;whiteSpace=wrap;html=1;fillColor=#d5e8d4;strokeColor=#82b366;" vertex="1" parent="1">
          <mxGeometry x="110" y="280" width="130" height="60" as="geometry" />
        </mxCell>
        <mxCell id="DtpV55ZIUneFxWsYKkXx-2" value="&lt;font style=&quot;font-size: 17px;&quot;&gt;已启动但未提交的事务&lt;/font&gt;" style="rounded=1;whiteSpace=wrap;html=1;fillColor=#fff2cc;strokeColor=#d6b656;" vertex="1" parent="1">
          <mxGeometry x="240" y="280" width="290" height="60" as="geometry" />
        </mxCell>
        <mxCell id="DtpV55ZIUneFxWsYKkXx-3" value="&lt;font style=&quot;font-size: 17px;&quot;&gt;还没开始的事务&lt;/font&gt;" style="rounded=1;whiteSpace=wrap;html=1;fillColor=#f8cecc;strokeColor=#b85450;" vertex="1" parent="1">
          <mxGeometry x="530" y="280" width="130" height="60" as="geometry" />
        </mxCell>
        <mxCell id="DtpV55ZIUneFxWsYKkXx-4" value="" style="endArrow=classic;html=1;rounded=0;fillColor=#0050ef;strokeColor=#001DBC;" edge="1" parent="1">
          <mxGeometry width="50" height="50" relative="1" as="geometry">
            <mxPoint x="240" y="190" as="sourcePoint" />
            <mxPoint x="240" y="270" as="targetPoint" />
          </mxGeometry>
        </mxCell>
        <mxCell id="DtpV55ZIUneFxWsYKkXx-8" value="" style="rounded=0;whiteSpace=wrap;html=1;fillColor=#60a917;fontColor=#ffffff;strokeColor=#2D7600;" vertex="1" parent="1">
          <mxGeometry x="195" y="145" width="100" height="40" as="geometry" />
        </mxCell>
        <mxCell id="DtpV55ZIUneFxWsYKkXx-9" value="" style="rounded=0;whiteSpace=wrap;html=1;fillColor=#d80073;fontColor=#ffffff;strokeColor=#A50040;" vertex="1" parent="1">
          <mxGeometry x="475" y="145" width="100" height="40" as="geometry" />
        </mxCell>
        <mxCell id="DtpV55ZIUneFxWsYKkXx-5" value="" style="endArrow=classic;html=1;rounded=0;fillColor=#0050ef;strokeColor=#001DBC;" edge="1" parent="1">
          <mxGeometry width="50" height="50" relative="1" as="geometry">
            <mxPoint x="530" y="190" as="sourcePoint" />
            <mxPoint x="530" y="270" as="targetPoint" />
          </mxGeometry>
        </mxCell>
        <mxCell id="DtpV55ZIUneFxWsYKkXx-15" value="" style="rounded=0;whiteSpace=wrap;html=1;" vertex="1" parent="1">
          <mxGeometry x="330" y="200" width="110" height="30" as="geometry" />
        </mxCell>
        <mxCell id="DtpV55ZIUneFxWsYKkXx-6" value="&lt;font style=&quot;font-size: 15px;&quot;&gt;min_trx_id&lt;/font&gt;" style="text;html=1;strokeColor=none;fillColor=none;align=center;verticalAlign=middle;whiteSpace=wrap;rounded=0;" vertex="1" parent="1">
          <mxGeometry x="190" y="150" width="110" height="30" as="geometry" />
        </mxCell>
        <mxCell id="DtpV55ZIUneFxWsYKkXx-7" value="&lt;font style=&quot;font-size: 15px;&quot;&gt;max_trx_id&lt;/font&gt;" style="text;html=1;strokeColor=none;fillColor=none;align=center;verticalAlign=middle;whiteSpace=wrap;rounded=0;" vertex="1" parent="1">
          <mxGeometry x="470" y="150" width="110" height="30" as="geometry" />
        </mxCell>
        <mxCell id="DtpV55ZIUneFxWsYKkXx-12" value="&lt;font style=&quot;font-size: 15px;&quot;&gt;m_ids&lt;/font&gt;" style="text;html=1;strokeColor=#d6b656;fillColor=#fff2cc;align=center;verticalAlign=middle;whiteSpace=wrap;rounded=0;" vertex="1" parent="1">
          <mxGeometry x="330" y="200" width="110" height="30" as="geometry" />
        </mxCell>
        <mxCell id="DtpV55ZIUneFxWsYKkXx-16" value="" style="shape=curlyBracket;whiteSpace=wrap;html=1;rounded=1;labelPosition=left;verticalLabelPosition=middle;align=right;verticalAlign=middle;direction=south;fillColor=#f0a30a;strokeColor=#BD7000;fontColor=#000000;" vertex="1" parent="1">
          <mxGeometry x="248" y="235" width="270" height="40" as="geometry" />
        </mxCell>
        <mxCell id="DtpV55ZIUneFxWsYKkXx-17" value="" style="shape=curlyBracket;whiteSpace=wrap;html=1;rounded=1;flipH=1;labelPosition=right;verticalLabelPosition=middle;align=left;verticalAlign=middle;direction=north;" vertex="1" parent="1">
          <mxGeometry x="120" y="370" width="530" height="30" as="geometry" />
        </mxCell>
        <mxCell id="DtpV55ZIUneFxWsYKkXx-18" value="" style="rounded=0;whiteSpace=wrap;html=1;" vertex="1" parent="1">
          <mxGeometry x="328" y="410" width="110" height="30" as="geometry" />
        </mxCell>
        <mxCell id="DtpV55ZIUneFxWsYKkXx-19" value="&lt;font style=&quot;font-size: 15px;&quot;&gt;所有记录的trx_id&lt;/font&gt;" style="text;html=1;strokeColor=#6c8ebf;fillColor=#dae8fc;align=center;verticalAlign=middle;whiteSpace=wrap;rounded=0;" vertex="1" parent="1">
          <mxGeometry x="280" y="410" width="210" height="30" as="geometry" />
        </mxCell>
      </root>
    </mxGraphModel>
  </diagram>
</mxfile>
